<svg width="55" height="50" viewBox="0 0 55 50" fill="none" xmlns="http://www.w3.org/2000/svg">
<rect width="53.125" height="50" rx="19" fill="#02897A"/>
<path d="M30.3036 26.5982L21.1607 17.4554C21.0536 17.3393 20.9107 17.2857 20.7589 17.2857C20.6875 17.2857 20.6071 17.3036 20.5446 17.3304C20.3304 17.4196 20.1875 17.625 20.1875 17.8571V31.2857C20.1875 31.5179 20.3304 31.7232 20.5446 31.8125C20.6071 31.8393 20.6875 31.8571 20.7589 31.8571C20.9107 31.8571 21.0536 31.7946 21.1607 31.6875L23.9464 28.9018L25.6518 32.9375C25.7768 33.2232 26.1071 33.3661 26.4018 33.2411L27.9821 32.5714C28.2679 32.4464 28.4107 32.1161 28.2857 31.8214L26.4911 27.5714H29.9018C30.1339 27.5714 30.3393 27.4286 30.4286 27.2143C30.5179 27.0089 30.4732 26.7589 30.3036 26.5982Z" fill="white"/>
</svg>
