<svg width="54" height="50" viewBox="0 0 54 50" fill="none" xmlns="http://www.w3.org/2000/svg">
<g clip-path="url(#clip0_1_565)">
<rect width="53.125" height="50" rx="19" fill="#F03E3D"/>
<path d="M31.6964 19.4286H32.5536C32.7143 19.4286 32.8393 19.3036 32.8393 19.1429V18.5714C32.8393 18.4107 32.7143 18.2857 32.5536 18.2857H19.4107C19.25 18.2857 19.125 18.4107 19.125 18.5714V19.1429C19.125 19.3036 19.25 19.4286 19.4107 19.4286H20.2679C20.2679 22.7321 21.8482 25.125 23.5982 26.2857C21.8482 27.4464 20.2679 29.8393 20.2679 33.1429H19.4107C19.25 33.1429 19.125 33.2679 19.125 33.4286V34C19.125 34.1607 19.25 34.2857 19.4107 34.2857H32.5536C32.7143 34.2857 32.8393 34.1607 32.8393 34V33.4286C32.8393 33.2679 32.7143 33.1429 32.5536 33.1429H31.6964C31.6964 29.8393 30.1161 27.4464 28.3661 26.2857C30.1161 25.125 31.6964 22.7321 31.6964 19.4286ZM30.5536 19.4286C30.5536 20.7321 30.2589 21.8839 29.7946 22.8571H22.1696C21.7054 21.8839 21.4107 20.7321 21.4107 19.4286H30.5536ZM30.0446 30.2857H21.9196C22.5804 28.5625 23.7679 27.3393 24.9554 26.8571H27.0089C28.1964 27.3393 29.3839 28.5625 30.0446 30.2857Z" fill="white"/>
</g>
<defs>
<clipPath id="clip0_1_565">
<rect width="53.125" height="50" fill="white"/>
</clipPath>
</defs>
</svg>
