<svg width="54" height="50" viewBox="0 0 54 50" fill="none" xmlns="http://www.w3.org/2000/svg">
<g clip-path="url(#clip0_1_557)">
<rect width="53.125" height="50" rx="19" fill="#740A76"/>
<path d="M26.0625 33.1429C26.2054 33.1429 26.3482 33.0893 26.4554 32.9821L32.0179 27.625C32.0982 27.5446 34.0625 25.75 34.0625 23.6071C34.0625 20.9911 32.4643 19.4286 29.7946 19.4286C28.2321 19.4286 26.7679 20.6607 26.0625 21.3571C25.3571 20.6607 23.8929 19.4286 22.3304 19.4286C19.6607 19.4286 18.0625 20.9911 18.0625 23.6071C18.0625 25.75 20.0268 27.5446 20.0982 27.6071L25.6696 32.9821C25.7768 33.0893 25.9196 33.1429 26.0625 33.1429Z" fill="white"/>
</g>
<defs>
<clipPath id="clip0_1_557">
<rect width="53.125" height="50" fill="white"/>
</clipPath>
</defs>
</svg>
