<svg width="54" height="50" viewBox="0 0 54 50" fill="none" xmlns="http://www.w3.org/2000/svg">
<g clip-path="url(#clip0_1_549)">
<rect width="53.125" height="50" rx="19" fill="#4D8DFF"/>
<path d="M26.4821 24.6429L27.6518 25.1875L29.3929 24.6696V23.4554C29.3929 21.3929 27.6518 19.7411 25.5714 19.7411C23.5 19.7411 21.75 21.3839 21.75 23.4286V28.9643C21.75 29.4732 21.3393 29.875 20.8393 29.875C20.3393 29.875 19.9286 29.4732 19.9286 28.9643V26.625H17C17 28.9732 17 29 17 29C17 31.1161 18.7143 32.8304 20.8304 32.8304C22.9286 32.8304 24.6607 31.1429 24.6607 29.0536V23.5893C24.6607 23.0893 25.0714 22.6786 25.5714 22.6786C26.0714 22.6786 26.4821 23.0893 26.4821 23.5893V24.6429ZM31.2143 26.625V29.0804C31.2143 29.5804 30.8036 29.9821 30.3036 29.9821C29.8036 29.9821 29.3929 29.5804 29.3929 29.0804V26.6696L27.6518 27.1875L26.4821 26.6429V29.0357C26.4821 31.1339 28.2054 32.8304 30.3125 32.8304C32.4286 32.8304 34.1429 31.1161 34.1429 29C34.1429 29 34.1429 28.9732 34.1429 26.625H31.2143Z" fill="white"/>
</g>
<defs>
<clipPath id="clip0_1_549">
<rect width="53.125" height="50" fill="white"/>
</clipPath>
</defs>
</svg>
